<mxfile host="app.diagrams.net" modified="2023-03-15T03:08:19.826Z" agent="5.0 (Windows NT 10.0; Win64; x64) AppleWebKit/537.36 (KHTML, like Gecko) Chrome/111.0.0.0 Safari/537.36" etag="BoKORJaejHclZzZ22Q4P" version="21.0.6" type="github">
  <diagram name="第 1 页" id="jQX-dU-1nZ_WLm4NonR6">
    <mxGraphModel dx="574" dy="331" grid="1" gridSize="10" guides="1" tooltips="1" connect="1" arrows="1" fold="1" page="1" pageScale="1" pageWidth="827" pageHeight="1169" math="0" shadow="0">
      <root>
        <mxCell id="0" />
        <mxCell id="1" parent="0" />
        <mxCell id="vs-r4dkjhPpXBXqWXcWx-22" value="" style="rounded=0;whiteSpace=wrap;html=1;dashed=1;" vertex="1" parent="1">
          <mxGeometry x="220" y="120" width="280" height="215" as="geometry" />
        </mxCell>
        <mxCell id="vs-r4dkjhPpXBXqWXcWx-4" value="p" style="ellipse;whiteSpace=wrap;html=1;aspect=fixed;" vertex="1" parent="1">
          <mxGeometry x="250" y="210" width="40" height="40" as="geometry" />
        </mxCell>
        <mxCell id="vs-r4dkjhPpXBXqWXcWx-10" value="&lt;font style=&quot;font-size: 18px;&quot;&gt;t&lt;sub&gt;1&lt;/sub&gt;&lt;/font&gt;" style="rounded=0;whiteSpace=wrap;html=1;" vertex="1" parent="1">
          <mxGeometry x="340" y="130" width="20" height="65" as="geometry" />
        </mxCell>
        <mxCell id="vs-r4dkjhPpXBXqWXcWx-11" value="&lt;font style=&quot;font-size: 18px;&quot;&gt;t&lt;sub&gt;2&lt;/sub&gt;&lt;/font&gt;" style="rounded=0;whiteSpace=wrap;html=1;" vertex="1" parent="1">
          <mxGeometry x="340" y="260" width="20" height="65" as="geometry" />
        </mxCell>
        <mxCell id="vs-r4dkjhPpXBXqWXcWx-12" value="∑&lt;span style=&quot;font-size: 10px;&quot;&gt;&lt;sub&gt;1&lt;/sub&gt;&lt;/span&gt;" style="ellipse;whiteSpace=wrap;html=1;aspect=fixed;" vertex="1" parent="1">
          <mxGeometry x="414" y="132.5" width="60" height="60" as="geometry" />
        </mxCell>
        <mxCell id="vs-r4dkjhPpXBXqWXcWx-13" value="∑&lt;span style=&quot;font-size: 8.33333px;&quot;&gt;&lt;sub&gt;2&lt;/sub&gt;&lt;/span&gt;" style="ellipse;whiteSpace=wrap;html=1;aspect=fixed;" vertex="1" parent="1">
          <mxGeometry x="414" y="262.5" width="60" height="60" as="geometry" />
        </mxCell>
        <mxCell id="vs-r4dkjhPpXBXqWXcWx-15" value="" style="endArrow=classic;html=1;rounded=0;exitX=1;exitY=0;exitDx=0;exitDy=0;entryX=0;entryY=0.5;entryDx=0;entryDy=0;" edge="1" parent="1" source="vs-r4dkjhPpXBXqWXcWx-4" target="vs-r4dkjhPpXBXqWXcWx-10">
          <mxGeometry width="50" height="50" relative="1" as="geometry">
            <mxPoint x="390" y="190" as="sourcePoint" />
            <mxPoint x="440" y="140" as="targetPoint" />
          </mxGeometry>
        </mxCell>
        <mxCell id="vs-r4dkjhPpXBXqWXcWx-16" value="" style="endArrow=classic;html=1;rounded=0;exitX=1;exitY=1;exitDx=0;exitDy=0;entryX=0;entryY=0.5;entryDx=0;entryDy=0;" edge="1" parent="1" source="vs-r4dkjhPpXBXqWXcWx-4" target="vs-r4dkjhPpXBXqWXcWx-11">
          <mxGeometry width="50" height="50" relative="1" as="geometry">
            <mxPoint x="390" y="190" as="sourcePoint" />
            <mxPoint x="440" y="140" as="targetPoint" />
          </mxGeometry>
        </mxCell>
        <mxCell id="vs-r4dkjhPpXBXqWXcWx-17" value="" style="endArrow=classic;html=1;rounded=0;exitX=1;exitY=0.5;exitDx=0;exitDy=0;entryX=0;entryY=0.5;entryDx=0;entryDy=0;" edge="1" parent="1" source="vs-r4dkjhPpXBXqWXcWx-10" target="vs-r4dkjhPpXBXqWXcWx-12">
          <mxGeometry width="50" height="50" relative="1" as="geometry">
            <mxPoint x="390" y="190" as="sourcePoint" />
            <mxPoint x="440" y="140" as="targetPoint" />
          </mxGeometry>
        </mxCell>
        <mxCell id="vs-r4dkjhPpXBXqWXcWx-18" value="" style="endArrow=classic;html=1;rounded=0;exitX=1;exitY=0.5;exitDx=0;exitDy=0;entryX=0;entryY=0.5;entryDx=0;entryDy=0;" edge="1" parent="1" source="vs-r4dkjhPpXBXqWXcWx-11" target="vs-r4dkjhPpXBXqWXcWx-13">
          <mxGeometry width="50" height="50" relative="1" as="geometry">
            <mxPoint x="370" y="292.26" as="sourcePoint" />
            <mxPoint x="424" y="292.26" as="targetPoint" />
          </mxGeometry>
        </mxCell>
        <mxCell id="vs-r4dkjhPpXBXqWXcWx-19" value="" style="endArrow=classic;html=1;rounded=0;entryX=0;entryY=0.5;entryDx=0;entryDy=0;" edge="1" parent="1" target="vs-r4dkjhPpXBXqWXcWx-4">
          <mxGeometry width="50" height="50" relative="1" as="geometry">
            <mxPoint x="200" y="230" as="sourcePoint" />
            <mxPoint x="440" y="140" as="targetPoint" />
          </mxGeometry>
        </mxCell>
        <mxCell id="vs-r4dkjhPpXBXqWXcWx-20" value="" style="endArrow=classic;html=1;rounded=0;exitX=1;exitY=0.5;exitDx=0;exitDy=0;" edge="1" parent="1" source="vs-r4dkjhPpXBXqWXcWx-12">
          <mxGeometry width="50" height="50" relative="1" as="geometry">
            <mxPoint x="490" y="162.26" as="sourcePoint" />
            <mxPoint x="540" y="162" as="targetPoint" />
          </mxGeometry>
        </mxCell>
        <mxCell id="vs-r4dkjhPpXBXqWXcWx-21" value="" style="endArrow=classic;html=1;rounded=0;exitX=1;exitY=0.5;exitDx=0;exitDy=0;" edge="1" parent="1" source="vs-r4dkjhPpXBXqWXcWx-13">
          <mxGeometry width="50" height="50" relative="1" as="geometry">
            <mxPoint x="480" y="293" as="sourcePoint" />
            <mxPoint x="540" y="293" as="targetPoint" />
          </mxGeometry>
        </mxCell>
        <mxCell id="vs-r4dkjhPpXBXqWXcWx-23" value="O&lt;sub&gt;1&lt;/sub&gt;" style="text;strokeColor=none;align=center;fillColor=none;html=1;verticalAlign=middle;whiteSpace=wrap;rounded=0;" vertex="1" parent="1">
          <mxGeometry x="490" y="132.5" width="60" height="30" as="geometry" />
        </mxCell>
        <mxCell id="vs-r4dkjhPpXBXqWXcWx-24" value="O&lt;span style=&quot;font-size: 10px;&quot;&gt;&lt;sub&gt;2&lt;/sub&gt;&lt;/span&gt;" style="text;strokeColor=none;align=center;fillColor=none;html=1;verticalAlign=middle;whiteSpace=wrap;rounded=0;" vertex="1" parent="1">
          <mxGeometry x="490" y="262.5" width="60" height="30" as="geometry" />
        </mxCell>
      </root>
    </mxGraphModel>
  </diagram>
</mxfile>
